<mxfile host="app.diagrams.net" modified="2024-01-16T23:14:53.709Z" agent="Mozilla/5.0 (Windows NT 10.0; Win64; x64) AppleWebKit/537.36 (KHTML, like Gecko) Chrome/120.0.0.0 Safari/537.36 Edg/120.0.0.0" version="22.1.20" etag="mMqFsP8SdSYn8mk78-Ie" type="github">
  <diagram name="PÃ¡gina-1" id="5IiF6cwgRbIX1lnbdPNn">
    <mxGraphModel>
      <root>
        <mxCell id="0" />
        <mxCell id="1" parent="0" />
      </root>
    </mxGraphModel>
  </diagram>
</mxfile>
